#!OML:ASF F:\VICON\USERDATA\INSTALL\rory3\rory3.ASF
:FULLY-SPECIFIED
:DEGREES
36
root 1.1937887949323762 18.16231813696812 -4.439360174981289 -3.5128884756513408 -1.1467118750280045 0.38566074032835296
lfemur -6.707446630146185 -1.4072310066930735 -25.93758043433646
ltibia 27.917048145276752
lfoot -10.593359482174371 -1.3595263317203985
ltoes -0.3054022954966884
rfemur -22.554638689878338 -3.2694374887493627 20.434730942448365
rtibia 73.84338279027517
rfoot -0.48905358719411307 -9.60358258235517
rtoes 10.841280824229703
lowerback 11.918668574403297 0.4740766097205896 -1.1215863160605894
upperback -0.029485617043061033 0.6119858323220748 1.0400475496253887
thorax -6.364877388128967 0.3331517981374553 1.7085249569766958
lowerneck -16.38280401743647 -3.449632624048914 -2.134931463062449
upperneck 20.55817616756552 -4.6884502010091476 2.0072554530517843
head 9.273399333905212 -2.1541429230163938 0.38551593172140247
lclavicle 2.929106959485941e-16 5.029709503849612e-17
lhumerus -30.356023133074203 4.398610343581904 80.71873975064976
lradius 25.02069322269046
lwrist 7.5300503865257635
lhand -29.41646198421292 17.730594419119274
lfingers 7.125020000000001
lthumb -2.5631103967239337 48.09811786649207
rclavicle 2.98519032966239e-16 5.489108222603081e-17
rhumerus -29.06198553362877 -21.23336112313814 -79.07450926893316
rradius 28.73474557677687
rwrist 5.282780751434613
rhand -17.45844110518192 23.5415962918967
rfingers 7.125020000000001
rthumb 8.90390944365626 -6.367069885213415
37
root 1.2116404927788238 18.10087394634442 -3.684195400611749 -3.40577819109151 -0.3867608352895026 0.7800393602635385
lfemur -4.570070172542627 -1.320865831604375 -26.710769041899894
ltibia 28.055391203148538
lfoot -10.124268648709677 0.3657066292814224
ltoes -2.399557656827631
rfemur -26.190820072273688 -3.686315313291354 20.270423758215905
rtibia 71.23757761415372
rfoot -4.426936365056569 -8.307517063311387
rtoes 7.817446070190411
lowerback 12.032292042776838 0.08716598833353079 -1.6301265943205256
upperback -0.024135401173084978 -0.004270646261947619 1.073763483932451
thorax -6.3488164769563875 0.05847460828950271 2.235064613722327
lowerneck -16.440152405669266 -3.3721575361302056 -2.1938377073461526
upperneck 20.662400511247917 -4.489879423009073 1.8386197359670484
head 9.282529886923113 -2.08417835654111 0.37423881585706054
lclavicle 2.927506596364038e-16 5.0978249899262166e-17
lhumerus -29.585964373795672 3.2259063148360174 80.78068699491234
lradius 26.5716776762571
lwrist 7.529431746939893
lhand -29.185637422730736 18.630687935531583
lfingers 7.125020000000001
lthumb -2.3999036730703196 48.99484196067294
rclavicle 2.9891679661910177e-16 5.5176469910168346e-17
rhumerus -30.28003334405322 -21.340264451925215 -78.80915763119263
rradius 29.001063977583314
rwrist 4.339230568218987
rhand -17.57044042383484 23.662796405047402
rfingers 7.125020000000001
rthumb 8.849268164511402 -6.210695452601653
38
root 1.225433988799808 18.02344029677701 -2.9367779424803473 -3.462249174287731 0.4201530011714004 1.2190372298639032
lfemur -2.26619168052805 -1.1653560900136242 -27.396772237866188
ltibia 27.738483705126704
lfoot -11.55924848443423 1.182189263723604
ltoes -3.8435535312773856
rfemur -29.057872315269428 -4.0295189924526635 20.14426595833365
rtibia 65.84012652787743
rfoot -7.336260359646503 -8.350775768094662
rtoes 3.295867785940258
lowerback 12.183032102352106 -0.234770401500866 -2.327837245449105
upperback -0.07237006399712989 -0.5260466690648333 1.1075302063098889
thorax -6.36093922483218 -0.17236136747330852 2.816642233636262
lowerneck -16.506266959863687 -3.3160231900166095 -2.2826398361608344
upperneck 20.688429149273453 -4.33973548427852 1.7635178493970418
head 9.283164945427478 -2.024633489409737 0.38981011859309156
lclavicle 2.9381481593087634e-16 5.211777640690935e-17
lhumerus -28.92064794160482 2.2498395043651214 80.81381301618147
lradius 28.0871346932164
lwrist 8.076432798560983
lhand -29.037971870666006 19.4189350967445
lfingers 7.125020000000001
lthumb -2.2411020096306062 49.991305042168165
rclavicle 2.986760229151608e-16 5.500408392865498e-17
rhumerus -31.5272675478515 -20.74146982960438 -78.70869911146968
rradius 29.86484487100707
rwrist 2.825188817485279
rhand -17.770040668515463 23.39830996039603
rfingers 7.125020000000001
rthumb 8.694470283128418 -6.255073064548535
39
root 1.221811599923215 17.976380243812258 -2.1684358629649054 -3.3147738968974414 1.1323508260609692 1.7358963490309147
lfemur 0.2723029898049383 -1.0312987348708689 -27.928582711886584
ltibia 26.393054363659587
lfoot -13.378667184734844 0.8758185826265614
ltoes -4.726559654262916
rfemur -30.652396649720487 -4.009597288556974 19.947417145688412
rtibia 57.38927578769207
rfoot -7.995835736887043 -9.829747500243053
rtoes 0.03998848439412939
lowerback 12.202884136324732 -0.5027553323377018 -3.1785851217086547
upperback -0.02750915373078673 -0.9523839414192274 1.1243712674176067
thorax -6.322097582759499 -0.37093356609888917 3.338565933358085
lowerneck -16.645946033156378 -3.279844153421789 -2.342232088648639
upperneck 20.660270935918142 -4.238005487321956 1.7934440756366932
head 9.329755966931575 -1.9821865799730372 0.4237503334464614
lclavicle 2.978083489055258e-16 5.473128463755401e-17
lhumerus -28.41277475753693 1.6577268433040184 80.82789594309709
lradius 29.523896289158454
lwrist 8.847733888958272
lhand -29.179412611976 20.187777827259023
lfingers 7.125020000000001
lthumb -2.3301714400990137 51.090869569553064
rclavicle 2.9907468731435425e-16 5.529127334467884e-17
rhumerus -32.66803944994792 -19.928948949177325 -78.75564648529692
rradius 30.87784179780171
rwrist 1.7183571553245325
rhand -17.864107540986055 22.95393668236265
rfingers 7.125020000000001
rthumb 8.548933483966835 -6.519037445953371
40
root 1.2020985290050916 17.961324824544405 -1.4459781974719768 -2.835547466509663 1.4759684264366997 2.072190729817118
lfemur 3.1534883365856485 -0.8631309216392808 -28.184601542351473
ltibia 23.917161295396433
lfoot -13.48728139742959 0.6895099594831855
ltoes -5.5502147339740375
rfemur -31.08207131476221 -3.1038926006641248 19.750674906465765
rtibia 46.16196689460065
rfoot -6.80093485297967 -12.114074118590846
rtoes 0.38499393389679937
lowerback 11.907278701827739 -0.6483112198331791 -3.712978453326051
upperback 0.10588626717448996 -1.2086306418497241 1.130110449129671
thorax -6.1831127798679475 -0.4998751999476271 3.690315940484691
lowerneck -16.821654623600736 -3.229404511915125 -2.34140755943735
upperneck 20.513608389347063 -4.143546251990681 1.7898924971598449
head 9.320164777348433 -1.9439682942704626 0.4323253153604424
lclavicle 3.053501642861021e-16 5.899587483349413e-17
lhumerus -28.22808819510791 1.2959777497548295 80.84865680605279
lradius 30.865546734610277
lwrist 9.579231969878848
lhand -29.370767268091555 20.723295640174214
lfingers 7.125020000000001
lthumb -2.5335710031760814 51.560239057212634
rclavicle 2.9916255542228483e-16 5.535429106258321e-17
rhumerus -33.67842379935697 -19.48452536174822 -78.74513845557394
rradius 31.423849335982773
rwrist 1.4279833307786518
rhand -17.805927814956576 22.6796678570907
rfingers 7.125020000000001
rthumb 8.548951194522482 -6.806304584165429
41
root 1.1696137509203097 17.980868405029373 -0.6435972343653464 -1.797850835482299 1.3517209911627526 2.126555590835662
lfemur 6.019815781321818 -0.6097376926722964 -27.935317784390143
ltibia 20.93230487097858
lfoot -13.306403766249163 0.31064750286996734
ltoes -6.858021861923811
rfemur -30.705362825096714 -0.9990745473264551 19.438979671516343
rtibia 33.47835519589373
rfoot -5.197233567846247 -14.558755492457191
rtoes -0.0232633314679207
lowerback 11.168157034798154 -0.69769877956591 -3.8321974031981423
upperback 0.1395447754769245 -1.3414623580816045 1.1537172954111872
thorax -6.078511297862545 -0.5649361501216998 3.9176328396317315
lowerneck -16.942230213834705 -3.154863062691988 -2.305040914725583
upperneck 20.41647095820309 -4.016933264874425 1.7228353376436263
head 9.279827329768157 -1.8950845966567837 0.41970913213965033
lclavicle 3.016244609707908e-16 5.674608220337083e-17
lhumerus -28.389540512230397 0.8472892152210263 80.872160592828
lradius 32.11976596897996
lwrist 10.182856712996713
lhand -29.63712286447789 20.820934105631185
lfingers 7.125020000000001
lthumb -2.8019006750869884 51.50174784677124
rclavicle 2.994062115405142e-16 5.552900273095569e-17
rhumerus -34.52592648257947 -19.708703480854723 -78.44329589456004
rradius 31.1019152336075
rwrist 1.8383077481083663
rhand -17.68328424836146 22.683229366937134
rfingers 7.125020000000001
rthumb 8.629452909988611 -7.032294979462601
42
root 1.125977231935936 17.95519249488984 -0.06931382776809158 -1.3774148005403015 1.5763284748465982 2.5301585326929583
lfemur 9.530556180552828 -0.2685704276134522 -27.872450857898396
ltibia 17.26687111030509
lfoot -13.005395436617002 -0.3342493745614252
ltoes -9.084746949458134
rfemur -29.529248818616537 2.381990355321468 17.706920659117856
rtibia 21.881695867672693
rfoot -5.16900314838962 -16.81002902671801
rtoes -1.1449902039777378
lowerback 10.666277378037348 -0.8318364011363444 -4.463817188737091
upperback -0.004625169056092615 -1.6571354853294802 1.11890340335622
thorax -6.044459419197255 -0.6979862485215924 4.210867620697235
lowerneck -17.065422289823317 -3.0858572654251697 -2.2619592963014323
upperneck 20.574406264205177 -3.8819689590835664 1.6151111390299875
head 9.326915260906773 -1.8425190944674101 0.39333981654839967
lclavicle 3.0017466091960026e-16 5.595896287789859e-17
lhumerus -28.766736022269075 0.19135409644045476 80.97018429507389
lradius 33.27549890171903
lwrist 10.748421285430638
lhand -30.037123875401722 20.42441541929046
lfingers 7.125020000000001
lthumb -3.184416384638509 51.03514915392376
rclavicle 2.994928270896575e-16 5.559113750845979e-17
rhumerus -35.30210720254622 -20.434395040278968 -77.79771771083799
rradius 30.10921113446704
rwrist 2.6454872041956388
rhand -17.6920590451092 22.922568791041922
rfingers 7.125020000000001
rthumb 8.65825688113608 -6.8774990508181215
43
root 1.0677371644566125 17.934071093418392 0.4434310752441082 -1.0793104890145784 2.1941986015611956 2.608848144513603
lfemur 12.271901755493051 -0.35303552393339444 -27.24525767577324
ltibia 15.41787557651974
lfoot -12.500416265713246 -1.012930596325406
ltoes -11.641743573442916
rfemur -28.125609583918155 6.400925357470734 15.834024605457802
rtibia 14.36752974874597
rfoot -6.869366098834992 -17.02858767998248
rtoes -3.545538734697364
lowerback 10.319889808621442 -1.0278428498540855 -4.926278961030027
upperback -0.10967431022107207 -1.9612354602184812 1.1489887547425146
thorax -5.925518751276165 -0.8233734445661827 4.499529511803768
lowerneck -17.167730894338664 -3.0449784725993037 -2.2582553788865067
upperneck 20.820687631357146 -3.7847062935500904 1.4782704297528995
head 9.422313054365725 -1.8075074439786942 0.35648328534334295
lclavicle 2.9950390227180514e-16 5.55730403075123e-17
lhumerus -29.201815984037726 -0.27369686412978966 81.13103879796309
lradius 34.05695300583002
lwrist 11.069155111188323
lhand -30.514944733045432 19.63644848018885
lfingers 7.125020000000001
lthumb -3.6697059156171195 50.206554555789566
rclavicle 2.9906524522272483e-16 5.528381197759539e-17
rhumerus -35.97439667612701 -21.356483880708275 -76.88481398617235
rradius 28.791190540291453
rwrist 3.5316009724876696
rhand -17.799419232913678 23.139003387754776
rfingers 7.125020000000001
rthumb 8.555683333415745 -6.6537977656398
